custom-analysis
version=1
nRows=4
nColumns=98
inDegrees=no

This file contains tibia displacement and acting force.

Units are S.I. units (seconds, meters, Newtons, ...)
Angles are in degrees.

endheader
time	APT	SIT	knee_angle	aACL_R_force	pACL_R_force	aPCL_R_force	pPCL_R_force	aMCL_R_force	mMCL_R_force	pMCL_R_force	aLCL_R_force	mLCL_R_force	pLCL_R_force	aPCL_L_force	pPCL_L_force	aMCL_L_force	aLCL_L_force	aACL_R_length	pACL_R_length	aPCL_R_length	pPCL_R_length	aMCL_R_length	mMCL_R_length	pMCL_R_length	aLCL_R_length	mLCL_R_length	pLCL_R_length	aPCL_L_length	pPCL_L_length	aMCL_L_length	aLCL_L_length	aACL_R_strain	pACL_R_strain	aPCL_R_strain	pPCL_R_strain	aMCL_R_strain	mMCL_R_strain	pMCL_R_strain	aLCL_R_strain	mLCL_R_strain	pLCL_R_strain	aPCL_L_strain	pPCL_L_strain	aMCL_L_strain	aLCL_L_strain	femur_lat_meniscii_r.femur_lat_r.force.X	femur_lat_meniscii_r.femur_lat_r.force.Y	femur_lat_meniscii_r.femur_lat_r.force.Z	femur_lat_meniscii_r.femur_lat_r.torque.X	femur_lat_meniscii_r.femur_lat_r.torque.Y	femur_lat_meniscii_r.femur_lat_r.torque.Z	femur_lat_meniscii_r.meniscus_lat_r.force.X	femur_lat_meniscii_r.meniscus_lat_r.force.Y	femur_lat_meniscii_r.meniscus_lat_r.force.Z	femur_lat_meniscii_r.meniscus_lat_r.torque.X	femur_lat_meniscii_r.meniscus_lat_r.torque.Y	femur_lat_meniscii_r.meniscus_lat_r.torque.Z	femur_med_meniscii_r.femur_med_r.force.X	femur_med_meniscii_r.femur_med_r.force.Y	femur_med_meniscii_r.femur_med_r.force.Z	femur_med_meniscii_r.femur_med_r.torque.X	femur_med_meniscii_r.femur_med_r.torque.Y	femur_med_meniscii_r.femur_med_r.torque.Z	femur_med_meniscii_r.meniscus_med_r.force.X	femur_med_meniscii_r.meniscus_med_r.force.Y	femur_med_meniscii_r.meniscus_med_r.force.Z	femur_med_meniscii_r.meniscus_med_r.torque.X	femur_med_meniscii_r.meniscus_med_r.torque.Y	femur_med_meniscii_r.meniscus_med_r.torque.Z	femur_med_tibia_r.tibia_upper_r.force.X	femur_med_tibia_r.tibia_upper_r.force.Y	femur_med_tibia_r.tibia_upper_r.force.Z	femur_med_tibia_r.tibia_upper_r.torque.X	femur_med_tibia_r.tibia_upper_r.torque.Y	femur_med_tibia_r.tibia_upper_r.torque.Z	femur_med_tibia_r.femur_med_r.force.X	femur_med_tibia_r.femur_med_r.force.Y	femur_med_tibia_r.femur_med_r.force.Z	femur_med_tibia_r.femur_med_r.torque.X	femur_med_tibia_r.femur_med_r.torque.Y	femur_med_tibia_r.femur_med_r.torque.Z	femur_lat_tibia_r.tibia_upper_r.force.X	femur_lat_tibia_r.tibia_upper_r.force.Y	femur_lat_tibia_r.tibia_upper_r.force.Z	femur_lat_tibia_r.tibia_upper_r.torque.X	femur_lat_tibia_r.tibia_upper_r.torque.Y	femur_lat_tibia_r.tibia_upper_r.torque.Z	femur_lat_tibia_r.femur_lat_r.force.X	femur_lat_tibia_r.femur_lat_r.force.Y	femur_lat_tibia_r.femur_lat_r.force.Z	femur_lat_tibia_r.femur_lat_r.torque.X	femur_lat_tibia_r.femur_lat_r.torque.Y	femur_lat_tibia_r.femur_lat_r.torque.Z	femur_lat_meniscii_force_r	femur_med_meniscii_force_r	femur_lat_tibia_force_r	femur_med_tibia_force_r
      0.17392771	      0.01470597	      0.01846678	     58.78022691	      3.31407913	      0.00000000	    334.62553909	    200.64437252	      0.00000000	      0.00000000	      0.00000000	      0.00000000	      0.00000000	      0.00000000	      0.00000000	      0.00000000	      0.00000001	      0.00000000	      0.03248998	      0.02481446	      0.03353538	      0.03123234	      0.05952482	      0.05921004	      0.05631621	      0.05113501	      0.04638560	      0.04125566	      0.01525851	      0.01651186	      0.06550154	      0.04489616	      0.04787787	     -0.00974680	      0.07847106	      0.04498625	     -0.00836589	     -0.00975787	     -0.04106704	     -0.08650294	     -0.17637165	     -0.21181637	      0.00000079	     -0.32847694	      0.00000060	     -0.00000086	     34.84832848	    158.35299826	     25.12928821	    -13.99364628	      0.94394817	     12.93478903	    -34.84832848	   -158.35299826	    -25.12928821	      4.52040825	     -1.57630252	      4.18713315	     14.69215370	      7.34240825	     -0.91322391	      0.51528981	     -0.31520400	      5.88375603	    -14.69215370	     -7.34240825	      0.91322391	     -0.14773509	      0.30980892	     -0.01382924	   -397.30747238	   -629.34801518	    185.64988157	    -13.02410804	     11.03101722	      9.34173051	    397.30747238	    629.34801518	   -185.64988157	     86.20954555	     -7.52352580	    159.17199918	    -29.84145632	   -155.41897429	    -37.04864530	      4.59508389	     -1.83690885	      4.02531709	     29.84145632	    155.41897429	     37.04864530	    -18.70044884	      0.94290822	     11.08641748	    164.07790583	     16.45005523	    162.53667957	    767.07107255
      0.17417427	      0.01471672	      0.01851107	     58.90392857	      3.20517923	      0.00000000	    337.97674675	    202.32836316	      0.00000000	      0.00000000	      0.00000000	      0.00000000	      0.00000000	      0.00000000	      0.00000000	      0.00000000	      0.00000001	      0.00000000	      0.03248126	      0.02480730	      0.03355443	      0.03124336	      0.05953472	      0.05920950	      0.05630920	      0.05113148	      0.04637548	      0.04124230	      0.01525851	      0.01651186	      0.06550154	      0.04489616	      0.04759668	     -0.01003242	      0.07908357	      0.04535503	     -0.00820101	     -0.00976690	     -0.04118645	     -0.08656594	     -0.17655123	     -0.21207166	      0.00000079	     -0.32847694	      0.00000060	     -0.00000086	     34.95651961	    157.86452428	     25.06848817	    -13.95707772	      0.94443732	     12.97576703	    -34.95651961	   -157.86452428	    -25.06848817	      4.50573317	     -1.57648340	      4.18377451	     15.06017225	      7.48821211	     -0.95493223	      0.53512551	     -0.32359713	      6.03090061	    -15.06017225	     -7.48821211	      0.95493223	     -0.15108690	      0.31852530	     -0.01402479	   -401.56050008	   -630.38616168	    186.30195729	    -13.05406934	     11.13081243	      9.33703566	    401.56050008	    630.38616168	   -186.30195729	     86.50100310	     -7.60965108	    160.88704197	    -30.19732336	   -154.26726270	    -36.73783416	      4.55752876	     -1.83697851	      3.99142555	     30.19732336	    154.26726270	     36.73783416	    -18.54553209	      0.94811454	     11.23872846	    163.62027805	     16.84618664	    161.43089895	    770.28953475
      0.17442084	      0.01472743	      0.01855534	     59.02768180	      3.10460365	      0.00000000	    341.33647972	    204.04094945	      0.00000000	      0.00000000	      0.00000000	      0.00000000	      0.00000000	      0.00000000	      0.00000000	      0.00000000	      0.00000001	      0.00000000	      0.03247260	      0.02480023	      0.03357346	      0.03125438	      0.05954466	      0.05920901	      0.05630226	      0.05112796	      0.04636540	      0.04122901	      0.01525851	      0.01651186	      0.06550154	      0.04489616	      0.04731733	     -0.01031466	      0.07969575	      0.04572375	     -0.00803542	     -0.00977508	     -0.04130464	     -0.08662884	     -0.17673026	     -0.21232559	      0.00000079	     -0.32847694	      0.00000060	     -0.00000086	     35.75720440	    157.08699060	     24.55192055	    -13.71861206	      0.96527100	     13.30915645	    -35.75720440	   -157.08699060	    -24.55192055	      4.46561375	     -1.58786041	      4.15025361	     15.39489532	      7.41550249	     -0.94098571	      0.52897007	     -0.33077221	      6.16712915	    -15.39489532	     -7.41550249	      0.94098571	     -0.15044069	      0.32481715	     -0.02116924	   -405.86963422	   -631.70146304	    186.56935458	    -13.07789196	     11.22092298	      9.34124840	    405.86963422	    631.70146304	   -186.56935458	     86.63758681	     -7.69495263	    162.62165054	    -30.60693350	   -153.07970172	    -36.43920529	      4.51940250	     -1.83914703	      3.95489641	     30.60693350	    153.07970172	     36.43920529	    -18.39480934	      0.95506840	     11.41366452	    162.96532479	     17.11367679	    160.30594230	    773.68276603
      0.17480028	      0.01474378	      0.01862344	     59.21823245	      2.94175155	      0.00000000	    346.53352595	    206.75557907	      0.00000000	      0.00000000	      0.00000000	      0.00000000	      0.00000000	      0.00000000	      0.00000000	      0.00000000	      0.00000001	      0.00000000	      0.03245937	      0.02478950	      0.03360276	      0.03127137	      0.05956005	      0.05920838	      0.05629174	      0.05112258	      0.04634997	      0.04120872	      0.01525851	      0.01651186	      0.06550154	      0.04489616	      0.04689070	     -0.01074288	      0.08063801	      0.04629201	     -0.00777892	     -0.00978574	     -0.04148378	     -0.08672496	     -0.17700424	     -0.21271318	      0.00000079	     -0.32847694	      0.00000060	     -0.00000086	     36.97864693	    156.09003508	     24.66470501	    -13.74301696	      0.99771036	     13.81776767	    -36.97864693	   -156.09003508	    -24.66470501	      4.44320924	     -1.62637411	      4.10348673	     15.89635745	      7.55146457	     -0.98017304	      0.54751705	     -0.34225872	      6.36805542	    -15.89635745	     -7.55146457	      0.98017304	     -0.15347513	      0.33634880	     -0.02305057	   -411.95168151	   -633.72920464	    187.21050146	    -13.11969952	     11.36168953	      9.36431682	    411.95168151	    633.72920464	   -187.21050146	     86.94226082	     -7.82214102	    165.06202821	    -30.82344093	   -151.24157365	    -35.89762475	      4.45813936	     -1.83126710	      3.90987176	     30.82344093	    151.24157365	     35.89762475	    -18.12839620	      0.95720323	     11.51062341	    162.29561625	     17.62610384	    158.46998950	    778.69420479
